<svg xmlns="http://www.w3.org/2000/svg" data-name="Layer 1" viewBox="0 0 32 32"><defs><linearGradient id="a" x1="6.29" x2="25.71" y1="10.71" y2="30.12" gradientUnits="userSpaceOnUse"><stop offset="0" stop-color="#f4eeec"/><stop offset="1" stop-color="#de856d"/></linearGradient><linearGradient id="b" x1="5.59" x2="26.41" y1="10" y2="30.83" gradientUnits="userSpaceOnUse"><stop offset="0" stop-color="#92278f"/><stop offset="1" stop-color="#262262"/></linearGradient></defs><path fill="url(#a)" d="M14.64,3.26,2,15H5V28a2,2,0,0,0,2,2H25a2,2,0,0,0,2-2V15h3L17.36,3.26A2,2,0,0,0,14.64,3.26Z"/><path fill="url(#b)" d="M25,31H7a3,3,0,0,1-3-3V16H2a1,1,0,0,1-.68-1.73L14,2.53h0a3,3,0,0,1,4.08,0L30.68,14.27A1,1,0,0,1,30,16H28V28A3,3,0,0,1,25,31ZM4.55,14H5a1,1,0,0,1,1,1V28a1,1,0,0,0,1,1H25a1,1,0,0,0,1-1V15a1,1,0,0,1,1-1h.45L16.68,4a1,1,0,0,0-1.36,0Z"/></svg>