<svg xmlns="http://www.w3.org/2000/svg" viewBox="0 0 32 32"><g data-name="home, location, maps, shipment"><path fill="#ffe082" d="M23.71,16.29l-9-9a1,1,0,0,0-1.42,0l-9,9A1,1,0,0,0,4,17V29a1,1,0,0,0,1,1h6a1,1,0,0,0,1-1V23h4v6a1,1,0,0,0,1,1h6a1,1,0,0,0,1-1V17A1,1,0,0,0,23.71,16.29Z"/><path fill="#ffd54f" d="M13.29,7.29l-9,9A1,1,0,0,0,4,17V29a1,1,0,0,0,1,1h6a1,1,0,0,0,1-1V23h2V7A1,1,0,0,0,13.29,7.29Z"/><path fill="#ef9a9a" d="M27.37,3.94a3.89,3.89,0,0,0-6.74,3.89l2.5,4.33a1,1,0,0,0,1.74,0l2.5-4.33A3.87,3.87,0,0,0,27.37,3.94Z"/><path fill="#e57373" d="M20.63,3.94a3.87,3.87,0,0,0,0,3.89l2.5,4.33a1,1,0,0,0,.87.5V2A3.87,3.87,0,0,0,20.63,3.94Z"/><path fill="#57455e" d="M23.71 16.29l-9-9a1 1 0 0 0-1.42 0l-9 9A1 1 0 0 0 4 17V29a1 1 0 0 0 1 1h6a1 1 0 0 0 1-1V23h4v6a1 1 0 0 0 1 1h6a1 1 0 0 0 1-1V17A1 1 0 0 0 23.71 16.29zM22 28H18V22a1 1 0 0 0-1-1H11a1 1 0 0 0-1 1v6H6V17.41l8-8 8 8zM24 12.66a1 1 0 0 1-.87-.5l-2.5-4.33a3.89 3.89 0 1 1 6.74 0l-2.5 4.33A1 1 0 0 1 24 12.66zM24 4a1.86 1.86 0 0 0-1.63.94 1.83 1.83 0 0 0 0 1.89L24 9.66l1.63-2.83a1.83 1.83 0 0 0 0-1.89A1.86 1.86 0 0 0 24 4z"/><circle cx="24" cy="5.89" r="1" fill="#662d91"/></g></svg>