<svg xmlns="http://www.w3.org/2000/svg" width="24" height="24" viewBox="0 0 6.35 6.35"><path fill="#00001d" style="line-height:normal;font-variant-ligatures:normal;font-variant-position:normal;font-variant-caps:normal;font-variant-numeric:normal;font-variant-alternates:normal;font-feature-settings:normal;text-indent:0;text-align:start;text-decoration-line:none;text-decoration-style:solid;text-decoration-color:#000;text-transform:none;text-orientation:mixed;shape-padding:0;isolation:auto;mix-blend-mode:normal" d="M 1.2929685,3.701172 A 0.26460978,0.26460978 0 0 0 1.0585935,3.9687499 V 5.5566406 A 0.26460978,0.26460978 0 0 0 1.3222653,5.8203125 H 5.0273435 A 0.26460978,0.26460978 0 0 0 5.2910153,5.5566406 V 3.9687499 a 0.26464841,0.26464841 0 1 0 -0.5292968,0 V 5.2910157 H 1.5878903 V 3.9687499 A 0.26460978,0.26460978 0 0 0 1.2929685,3.701172 Z" color="#000" font-family="sans-serif" font-weight="400" overflow="visible" paint-order="markers fill stroke"/><path fill="#ff2876" style="line-height:normal;font-variant-ligatures:normal;font-variant-position:normal;font-variant-caps:normal;font-variant-numeric:normal;font-variant-alternates:normal;font-feature-settings:normal;text-indent:0;text-align:start;text-decoration-line:none;text-decoration-style:solid;text-decoration-color:#000;text-transform:none;text-orientation:mixed;shape-padding:0;isolation:auto;mix-blend-mode:normal" d="m 3.1718746,0.52929686 a 0.26460978,0.26460978 0 0 0 -0.1835937,0.078125 L 0.60742157,2.9882812 a 0.26460978,0.26460978 0 1 0 0.37304687,0.373047 L 3.1757809,1.1679688 5.3691404,3.3613282 A 0.26460978,0.26460978 0 1 0 5.7441402,2.9882812 L 3.3613279,0.60742186 a 0.26460978,0.26460978 0 0 0 -0.1894533,-0.078125 z" color="#000" font-family="sans-serif" font-weight="400" overflow="visible" paint-order="markers fill stroke"/></svg>